<?xml version="1.0" encoding="UTF-8"?>
<svg id="Layer_2" data-name="Layer 2" xmlns="http://www.w3.org/2000/svg" viewBox="0 0 72.96 67.52">
  <defs>
    <style>
      .cls-1 {
        fill: #231f20;
        stroke-width: 0px;
      }
    </style>
  </defs>
  <g id="Layer_1-2" data-name="Layer 1">
    <path class="cls-1" d="M71.78,67.52l-21.83-.36h-21.35c-1.07,0-1.6-1.23-.85-1.95l11.05-10.48H15.47c-1.58,0-2.86-1.22-2.86-2.71v-21.19L1.83,41.04c-.68.65-1.83.19-1.83-.72V1.35C0,.17,1.48-.43,2.38.36l20.06,17.71c1.37,1.21,3.14,1.88,4.96,1.88h17.04c1.75,0,3.17,1.34,3.17,3.01v15.61c0,2.06.85,4.03,2.34,5.45h0v.14l22.66,21.48c.74.7.21,1.89-.83,1.88Z"/>
  </g>
</svg>